<?xml version="1.0" standalone="no"?>
<!DOCTYPE svg PUBLIC "-//W3C//DTD SVG 20010904//EN"
 "http://www.w3.org/TR/2001/REC-SVG-20010904/DTD/svg10.dtd">
<svg version="1.0" xmlns="http://www.w3.org/2000/svg"
 width="260.000000pt" height="260.000000pt" viewBox="0 0 260.000000 260.000000"
 preserveAspectRatio="xMidYMid meet">
<metadata>
Created by potrace 1.14, written by Peter Selinger 2001-2017
</metadata>
<g transform="translate(0.000000,260.000000) scale(0.100000,-0.100000)"
fill="#000000" stroke="none">
<path d="M424 2443 c-55 -42 -64 -51 -64 -74 0 -9 43 -75 95 -145 53 -71 128
-174 167 -229 40 -55 75 -102 78 -105 3 -3 48 -63 100 -135 52 -71 97 -132
100 -135 17 -16 37 -58 34 -75 -5 -37 -30 -45 -87 -28 -67 19 -493 158 -530
172 -16 6 -41 11 -56 11 -30 0 -42 -17 -67 -100 -11 -37 -11 -48 0 -65 10 -15
93 -46 317 -119 167 -54 309 -103 315 -108 18 -14 23 -45 10 -63 -11 -15 -127
-56 -566 -199 -151 -50 -241 -84 -252 -97 -16 -18 -15 -23 7 -86 23 -63 37
-83 60 -83 6 0 215 68 465 150 250 82 456 147 458 145 2 -2 -9 -21 -26 -42
-39 -50 -381 -526 -416 -580 -36 -53 -30 -71 40 -119 45 -31 59 -36 79 -28 15
5 78 84 164 204 234 327 251 348 272 353 13 3 28 -2 40 -14 17 -17 19 -35 20
-226 1 -476 1 -467 17 -485 21 -24 143 -26 167 -2 14 14 15 56 13 347 -1 183
2 342 6 354 14 43 64 39 96 -7 8 -12 67 -93 130 -179 64 -86 144 -196 179
-244 35 -48 71 -92 80 -97 11 -5 28 -3 48 6 40 20 103 78 103 96 0 13 -49 82
-373 523 -56 76 -103 142 -105 147 -2 4 14 1 35 -7 21 -8 133 -44 248 -81 116
-36 278 -88 360 -114 363 -117 334 -109 355 -91 10 9 28 43 39 76 26 79 17 93
-80 123 -76 24 -305 96 -579 183 -85 27 -166 55 -180 62 -28 14 -38 51 -20 72
9 11 107 50 155 61 53 13 488 164 499 174 9 7 16 21 16 31 0 33 -41 129 -59
139 -14 7 -95 -16 -322 -91 -167 -56 -317 -103 -332 -106 -37 -6 -67 20 -59
50 3 12 82 128 175 257 247 340 250 346 243 372 -7 30 -109 98 -136 91 -20 -5
-36 -26 -269 -348 -72 -99 -139 -191 -148 -204 -41 -55 -54 -61 -90 -36 -20
14 -21 22 -22 297 -2 333 4 318 -108 314 -49 -2 -69 -7 -79 -20 -9 -13 -12
-84 -10 -288 1 -174 -2 -278 -9 -292 -7 -14 -20 -21 -40 -21 -25 0 -38 13 -99
97 -525 716 -511 698 -536 698 -9 0 -39 -17 -66 -37z"/>
</g>
</svg>
